<svg id="emoji_u1f415" xmlns="http://www.w3.org/2000/svg" width="68.895" height="72.838" viewBox="0 0 68.895 72.838">
  <path id="Path_99" data-name="Path 99" d="M25.055,40.2a18.822,18.822,0,0,0-.6,8.656c.858,4.456,2.058,8.571,2.058,8.571s.256,8.742,0,9.685-2.228,2.143-2.228,3.859a4.079,4.079,0,0,0,3.8,4.4c3.172.517,5.74-.542,6.8-1.826,1.528-1.857,1.23-3.172,1.23-4.541s.085-9.253.426-10.458.858-1.887,1.8-1.8,1.972,1.54,2.058,4.286.17,7.542.085,8.486-.944,4.115-.256,5.4,3.8,2.532,6.2,2.4c3.141-.17,5.028-2.143,5.2-3.683s-.858-5.059-.858-6.087a56.068,56.068,0,0,1,1.54-8.486c.341-.426,1.388-.335,3.683-1.37a14.759,14.759,0,0,0,3.2-1.887s.055,6.087-.03,6.769-2.143,2.831-1.8,4.456,2.35,2.575,4.139,2.739a7.112,7.112,0,0,0,6.739-4.115,13.21,13.21,0,0,0,.256-6,54.437,54.437,0,0,1,0-7.457c.17-1.284.45-2.064.56-2.739a14.772,14.772,0,0,0,.128-2.356,10.243,10.243,0,0,0,4.712-1.157A11.294,11.294,0,0,0,78.3,40.287c.8-2.429.6-3.172-.085-3.257s-3.768,4.237-6.386,4.371c-4.158.213-3.744-4.243-6.915-6.94-3.573-3.044-9.143-3.427-9.143-3.427a30.493,30.493,0,0,0,.974-6.258c.043-11.615-5.613-15.553-5.613-15.553S44.334,4.159,36.621,4.5,23.253,10.97,23.253,10.97L19.01,29.7A27.749,27.749,0,0,0,21.8,35.911,34.4,34.4,0,0,0,25.055,40.2Z" transform="translate(-9.926 -4.483)" fill="#ffd2b1"/>
  <path id="Path_100" data-name="Path 100" d="M98.27,58.29" transform="translate(-40.937 -25.535)" fill="none" stroke="#6ba3ab" stroke-width="1"/>
  <path id="Path_101" data-name="Path 101" d="M13.859,8.317A9.892,9.892,0,0,0,4.131,17.1c-.055,1.93-.816,15.955,6.94,16.241,3.111.116,5.424-3.494,6.6-7.585,1.479-5.156,1.412-10.324,1.583-11.7a28.4,28.4,0,0,1,.73-3.811S19.216,8.208,13.859,8.317Z" transform="translate(-4.087 -5.981)" fill="#865b52"/>
  <path id="Path_102" data-name="Path 102" d="M71.377,4.793c6.854.256,9.192,3.293,9.856,5.059.73,1.93,1.37,8.815.3,13.411-.87,3.75-2.185,5.655-5.272,5.527C73.435,28.674,72,24.6,69.873,19.062,67.816,13.7,66.239,8.908,65.971,8.22A2.547,2.547,0,0,0,64.9,6.935S66.27,4.6,71.377,4.793Z" transform="translate(-27.88 -4.6)" fill="#865b52"/>
  <path id="Path_103" data-name="Path 103" d="M59.8,27.656c-3.385.213-5,3.975-4.286,7.755.773,4.072,3.445,6,6.812,5.57,3.683-.469,4.8-4.669,4.328-7.841C66.22,30.255,64.589,27.351,59.8,27.656Z" transform="translate(-24.142 -13.541)" fill="#d27856"/>
  <path id="Path_104" data-name="Path 104" d="M65.865,37.078c0,1.778-.986,3.263-2.551,3.22-2.125-.061-2.678-1.942-2.636-3.525a2.474,2.474,0,0,1,2.739-2.685C64.83,34.119,65.865,35.3,65.865,37.078Z" transform="translate(-26.228 -16.066)" fill="#060401"/>
  <path id="Path_105" data-name="Path 105" d="M36.515,38.688c0,1.851-.986,3.4-2.551,3.348-2.125-.061-2.678-2.021-2.636-3.671a2.448,2.448,0,0,1,2.612-2.66A2.75,2.75,0,0,1,36.515,38.688Z" transform="translate(-14.744 -16.696)" fill="#060401"/>
  <path id="Path_106" data-name="Path 106" d="M47.972,53.784S51.7,53.4,51.527,50.7s-2.7-2.873-4.669-2.831-4.8,1.071-4.5,3.342,3.512,2.569,3.512,2.569-.006,1.68-1.114,1.8c-1.2.128-2.916-1.717-3.385-2.185a.978.978,0,0,0-1.455.085c-.256.384-.085,1.242.645,1.972s2.441,2.569,4.158,2.4,1.759-1.071,2.441-1.114.645.986,2.356.944c1.205-.03,3.634-2.149,4.072-2.526.986-.858,1.242-1.717.816-2.271s-1.625.256-2.271.73-1.686,1.577-2.7,1.759C47.759,55.671,47.972,53.784,47.972,53.784Z" transform="translate(-18.062 -21.455)" fill="#060401"/>
  <path id="Path_107" data-name="Path 107" d="M75.98,50.95s-.81,1.778-1.485,3.2a19.722,19.722,0,0,1-1.985,3.214s1.321,9.034,9.18,8.255A5.646,5.646,0,0,0,86.834,60.8c.341-3.945-1.157-5.789-3.482-7.591A10.043,10.043,0,0,0,75.98,50.95Z" transform="translate(-30.858 -22.639)" fill="#d27856"/>
  <path id="Path_108" data-name="Path 108" d="M68.806,73.776a2.308,2.308,0,1,0,3.9,1.5A2.306,2.306,0,0,0,68.806,73.776Z" transform="translate(-29.127 -31.337)" fill="#d27856"/>
  <path id="Path_109" data-name="Path 109" d="M39.173,70.3s-1.23,3.372,1.37,7.6a6.481,6.481,0,0,0,5.314,2.739,6.223,6.223,0,0,0,4.925-2.484c2.271-2.831,1.625-7.542,1.625-7.542a19.566,19.566,0,0,1-6.9,1.37A15.474,15.474,0,0,1,39.173,70.3Z" transform="translate(-17.701 -30.234)" fill="#d27856"/>
  <path id="Path_110" data-name="Path 110" d="M31.13,112.677c-.895-.274-1.254,1.114-1.315,2s-.055,2.027.743,2.313.639-1.412.712-1.972C31.416,113.937,32.074,112.963,31.13,112.677Z" transform="translate(-14.144 -46.801)" fill="#d27856"/>
  <path id="Path_111" data-name="Path 111" d="M37,113.549c-.536-.024-1.1.517-1.169,2.088-.055,1.315,0,2.4.743,2.459,1,.079.718-1.2.773-2.258C37.37,115.236,38.113,113.6,37,113.549Z" transform="translate(-16.5 -47.156)" fill="#d27856"/>
  <path id="Path_112" data-name="Path 112" d="M59.569,116.36c-.858,0-.883.974-.883,2.027s-.219,2.368.743,2.484c1.169.14.944-1.431.944-2.313C60.366,117.791,60.506,116.36,59.569,116.36Z" transform="translate(-25.441 -48.256)" fill="#d27856"/>
  <path id="Path_113" data-name="Path 113" d="M66.134,116.024c-.688.14-.627,1.084-.6,2.228s-.14,2.356.828,2.258c.828-.085.773-1.431.743-2.459C67.078,117.162,67.193,115.8,66.134,116.024Z" transform="translate(-28.122 -48.114)" fill="#d27856"/>
  <path id="Path_114" data-name="Path 114" d="M84.9,103.8c-.59-.116-1.26.384-1.431,1.717-.14,1.144-.085,2.149.913,2.368.511.116.6-1.2.627-2.143C85.044,104.926,85.647,103.946,84.9,103.8Z" transform="translate(-35.125 -43.335)" fill="#d27856"/>
  <path id="Path_115" data-name="Path 115" d="M90.277,104.941c-.566-.091-1.12.256-1.266,1.674-.085.828-.39,2.313.639,2.368.8.037.737-1.272.81-1.954C90.575,105.952,91.208,105.1,90.277,104.941Z" transform="translate(-37.271 -43.783)" fill="#d27856"/>
</svg>
