<svg id="emoji_u2601" xmlns="http://www.w3.org/2000/svg" width="72.7" height="51.435" viewBox="0 0 72.7 51.435">
  <path id="Path_97" data-name="Path 97" d="M16.022,45.751c.438-.438-.772-5.645,4.618-9.668s9.067-1.623,9.583-1.8,2.911-10.7,13-13.43,20.619,2.394,23.1,10.951c2.267,7.821.51,13.09.772,13.43s5.135.17,7.955,4.7,1.8,7.359,1.8,7.359l-17.963,5.56H30.145S4.822,56.185,4.567,54.987s.322-5.086,4.448-7.444C12.6,45.5,15.25,46.522,16.022,45.751Z" transform="translate(-4.332 -20.115)" fill="#f2f7fa"/>
  <path id="Path_98" data-name="Path 98" d="M23.02,85.775S13.43,87.78,6.946,82.76c-3.9-3.026-2.479-7.93-2.479-7.93a15.29,15.29,0,0,0,8.441,3.591,79.032,79.032,0,0,0,11.978.51s1.58,2.7,7.529,3.938C39.871,84.419,43.8,80.6,43.8,80.6s2.042,2.443,9.231,2.613,11.218-4.849,11.893-4.965c.34-.055,2.321,1.744,6.247,1.112a12.7,12.7,0,0,0,5.706-2.224,7.058,7.058,0,0,1-3.221,6.5c-2.935,1.932-8.04,2.139-8.04,2.139a9.6,9.6,0,0,1-4.284,5.153c-3.257,2.024-8.872,2.7-13.029,1.458-5.22-1.556-6.514-3.932-6.514-3.932a16.822,16.822,0,0,1-9.966,1.507A14.786,14.786,0,0,1,23.02,85.775Z" transform="translate(-4.214 -41.58)" fill="#bacdd2"/>
</svg>
